<?xml version="1.0" encoding="utf-8"?>
<svg xmlns="http://www.w3.org/2000/svg" viewBox="0 0 259 246" width="259" height="246" shape-rendering="geometricPrecision" text-rendering="geometricPrecision">
<path fill="#FFFFFF" stroke="#FFFFFF" stroke-width="1.9" stroke-linejoin="round" stroke-linecap="round" paint-order="stroke fill" transform="translate(-3.2 0) scale(1.025 1)" d="M140,0c6.3,0.4,14.3,1.8,18,5c-4,19.7-8,39.3-12,59c-3.3-0.7-6.7-1.3-10-2C137.3,41.3,138.7,20.7,140,0z
	 M173,7c15.4,3.8,26.3,13.1,39,19c-0.7,1.3-1.3,2.7-2,4c-2.7,4-5.3,8-8,12c-7.3-3.7-14.7-7.3-22-11c-2.6,10,3,9.9,9,16
	c0,0.7,0,1.3,0,2c-2,2-4,4-6,6c-4.2-2.5-6.9-4.9-11-5c-1,2.3-2,4.7-3,7c0.7,1,1.3,2,2,3c5.7,1.4,9.8,5,13,9c-2.3,3.7-4.7,7.3-7,11
	c-0.3,0-0.7,0-1,0c-6.7-6.4-14-10.7-23-15C159.7,45.7,166.3,26.3,173,7z M222,37c4.3,4.3,8.7,8.7,13,13c-7.3,12-14.7,24-22,36
	c8.8-5.7,23.6-19.8,34-19c2,5,4,10,6,15c-0.3,0.7-0.7,1.3-1,2c-19.7,9.3-39.3,18.7-59,28c-2.2-14.1,2.1-15.9,6-29c-4.7,3-9.3,6-14,9
	c-3.7-7.9-6.6-6.7-2-14C195.2,72.2,215.9,49,222,37z M22,42c8.8,0,11.5,2.9,13,10c-0.3,0-0.7,0-1,0c-4.9-3-7.6,0.3-14-3
	c0-0.3,0-0.7,0-1C20.7,46,21.3,44,22,42z M221,126c0,4.3,0,8.7,0,13c-4.7,0.3-9.3,0.7-14,1c-0.3,0.7-0.7,1.3-1,2
	c5.7,8.6,22.7,8.2,31,3c0-1.3,0-2.7,0-4c-0.7-0.7-1.3-1.3-2-2c-2.7,2-5.3,4-8,6c0.7-8,1.3-16,2-24c9.5-0.8,26.2-4.5,30,2
	c-3,2-6,4-9,6c3.2,7.3,9.5,14.6,5,24c-10.7,26.7-53,1.2-62-9c0.2-6.4,1.6-9.3,4-13C204.6,128.6,210.5,126.2,221,126z M189,153
	c17.7,8,35.3,16,53,24c-2.3,3.7-4.7,7.3-7,11c-12.3-2.7-24.7-5.3-37-8c1,1.3,2,2.7,3,4c8,7,16,14,24,21c-3.7,3.7-7.3,7.3-11,11
	c-13.7-13.7-27.3-27.3-41-41c1.3-1.7,2.7-3.3,4-5c1.3-1,2.7-2,4-3c5.7,1.7,11.3,3.3,17,5c-4.7-3.7-9.3-7.3-14-11c1-1,2-2,3-3
	C187.7,156.3,188.3,154.7,189,153z M81,171c3,2.3,6,4.7,9,7c-12.3,16-24.7,32-37,48c-0.7-0.7-1.3-1.3-2-2c-3.3-2.7-6.7-5.3-10-8
	c1-1,2-2,3-3C56.3,199,68.7,185,81,171z M167,179c13.5,6.7,27.8,31.8,35,45c-4,3-8,6-12,9c-1-0.7-2-1.3-3-2
	c-6.4-16.4-24.6-32.1-27-48C162.3,181.7,164.7,180.3,167,179z M110,246c-5-1-10-2-15-3c-0.3-11-0.7-22-1-33c-0.7,0.3-1.3,0.7-2,1
	c-4.3,9-8.7,18-13,27c-5-1.3-10-2.7-15-4c-0.3-0.7-0.7-1.3-1-2c10.3-16.7,20.7-33.3,31-50c3.3,1.3,6.7,2.7,10,4c0,6,0,12,0,18
	c0-0.7,0-1.3,0-2c2.3-4.7,4.7-9.3,7-14c2.7,0.7,5.3,1.3,8,2c0,1.3,0,2.7,0,4C116,211.3,113,228.7,110,246z M148,202
	c2.3,14.3,4.7,28.7,7,43c-5.3,0.3-10.7,0.7-16,1c-1-13.3-2-26.7-3-40c-4.3-0.3-8.7-0.7-13-1c0.3-5,0.7-10,1-15c13.8,0.3,22.8-2,33-4
	c1.3,4.3,2.7,8.7,4,13c-0.7,0.3-1.3,0.7-2,1C155.3,200.7,151.7,201.3,148,202z M216,225c5,0.6,6.4,1.4,9,4c-2.6,3.2-2.7,3.8-7,3
	c-2.3,4.8-0.8,5.4,3,9c-0.3,1-0.7,2-1,3c-6.7-0.7-12.9-5.3-9-13C212.2,229.5,212.5,226.8,216,225z M132,63c-1.2-12.4-9.8-20.1-11-30
	c-0.8-6.5,4.6-13.1,5-22c-2.3-2.3-4.7-4.7-7-7c-9.5-7.9-26.5-0.2-34,3c-0.7,2.3-1.3,4.7-2,7c10,13,20.6,35.6,24,54
	c13.7-1.7,9.4-12.2,5-22c3,5.7,6,11.3,9,17C124.7,63,128.3,63,132,63z M111,26c-0.3,2.8-2.3,4.6-5.2,5.3c-2.1-5.4-5.2-11.5-3.9-15
	c1.4-0.7,4.4-1.8,6.1,0c1,1.3,1.8,3.7,2.8,5C112.5,21.5,112.5,23.8,111,26z M98,57c-2.6-6.4-5.9-9.8-15-10c2.4-10.7,0-19.8-6-25
	c-5.7-0.3-11.3-0.7-17-1c-9.4,5.3-15,8.8-22,16c0.3,1.7,0.7,3.3,1,5c9.3,7.3,18.7,14.7,28,22c6.7,6.7,13.3,13.3,20,20
	c3.3-2.7,6.7-5.3,10-8C98.4,70.6,99.8,63.2,98,57z M72,48c-0.7,0.3-1.3,0.7-2,1c-2-2.7-4-5.3-6-8c-1.3-1.3-2.7-2.7-4-4
	c0.8-0.5,1.2-2,3-2C71.9,35.2,72.7,38.8,72,48z M89,70c-1-1.3-2-2.7-3-4c-1.7-1.7-3.3-3.3-5-5c1-0.7,1.6-2.1,2.6-2.7
	c1.2-0.8,2.7-0.4,3.4,0.7c1,1.3,2,2.7,3,4C90.5,66,89.3,68.1,89,70z M31,54c-2,0.7-4,1.3-6,2c-35.5,12.5,6.2,61.7,45,50
	c2-3.3,4-6.7,6-10C82.5,73.8,49.9,57.1,31,54z M63,95c-11,5.3-22.9-3.9-28-11c-2-3.1-4.6-5.5-5.5-11c-1-3,2.8-6.4,13-6
	C56,70,65,80.9,66.1,91.3C65.4,93,65,95,63,95z M66,123c-7,0.7-14,1.3-21,2c-14.7-2.3-29.3-4.7-44-7c-0.3,6.3-0.7,12.7-1,19
	c4.2,4.1,15.2,1.5,22,1c7.1,9.6,9.8,16.1,22,21C63.7,158.4,72.5,143.5,66,123z M56,142c-3,0.7-6,1.3-9,2c-4.5-1.3-5.3-5.5-6-8
	c6-1.3,12-3,16,0C56.7,138,58,140,56,142z M69,156c-19.3,6.7-38.7,13.3-58,20c-1,0.7-2,1.3-3,2c2.3,3.7,4.7,7.3,7,11
	c1.3,3.3,12.3-4.2,17-5c1,1.7,2,3.3,3,5c-3.3,2.3-6.7,4.7-10,7c-1.9,5.6,2.5,10.3,8,14c14.7-14,29.3-28,44-42
	C75.7,162.8,73,158.5,69,156z M60.9,171.2c-2.5,3.9-7.4,6.8-11.9,7.8c-0.7-0.7-1.3-1.3-2-2c-0.3-1-0.7-2-1-3c3.1-3,7.1-4.4,11-5.8
	C59.7,166.8,60.6,169.9,60.9,171.2c0-0.1,0.1-0.1,0.1-0.2C61,172.1,61,171.9,60.9,171.2z M235,227c-1.6-1.2-4-0.9-6,0
	c-1.3,2-2.7,4-4,6c-1.4,4.4,0,8,2,10c1.3,0.3,2.7,0.7,4,1c5.2-3,7.1-5.5,7-14C237,229,236,228,235,227z M234,238
	c-0.3,0.3-0.7,0.7-1,1c-1.5,0.3-2.6,0.3-4,0.3c-0.3-0.7-0.7-1.7-1-2.3c0.7-1.3,0.6-2.5,1.8-3.7c1.7-1.2,3.1-0.5,4.2,0.7
	C234,235.3,234,236.7,234,238z"/>
</svg>
