<?xml version="1.0" encoding="UTF-8"?>
<svg width="1200pt" height="1200pt" version="1.1" viewBox="0 0 1200 1200" xmlns="http://www.w3.org/2000/svg">
 <path d="m763.68 847.55h9.8047v-45.18h1.1523c5.5781-0.011719 5.5781-20.242 0.011719-20.242h-1.1641v-73.871h1.1523c5.5781 0 5.5781-20.207 0.011719-20.207h-1.1641v-31.738h-9.8164c-0.046875-9.1914-5.7617-17.004-13.859-20.113-71.578-27.371-122.43-96.707-122.43-177.89 0-27.84 11.891-82.824 19.297-127.12 8.0391-30.18 28.523-158.14 10.586-223.95-16.297-59.715-64.668-107.25-64.668-107.25s-48.371 47.531-64.656 107.27c-17.941 65.797 6 193.74 14.039 223.93 7.3789 44.293 19.297 99.277 19.297 127.12 0 81.191-50.82 150.52-122.41 177.89-8.0625 3.1094-13.801 10.922-13.859 20.113h-9.8164v31.738h-1.2109c-5.6289 0-5.6289 20.207-0.011719 20.207h1.2109v73.871h-1.2109c-5.6055 0-5.6055 20.23 0 20.23h1.2109v45.191h9.793l-0.011718 0.28906h0.22656c0.51562 38.27-0.94922 94.066-5.6992 174.78-4.7656 81.023-9.8281 136.55-14.746 174.05l-0.023438 0.48047c20.723 1.9805 49.031 2.9648 82.367 2.8203l120.65-4.3906c71.363-4.6211 133.75-12.059 172.44-19.922zm-146.2-733.49c0 12.805-10.402 23.184-23.207 23.184-12.781 0-23.184-10.367-23.184-23.184 0-12.793 10.379-23.148 23.184-23.148 12.801 0 23.207 10.359 23.207 23.148zm-179.81 538.14c1.2109-8.5664 13.176-13.848 26.375-18.961 1.7656-0.68359 3.2656-1.2461 4.3203-1.7266 61.355-27.191 102.57-96.793 102.57-173.2 0-17.09-5.3398-46.188-10.992-77.004-3.2656-17.797-6.6484-36.191-9-52.598-9.6367-42-30.301-145.96-15.504-208.89 14.207-60.383 52.02-101.05 53.629-102.76 1.957-2.0625 5.207-2.1719 7.2734-0.22656 2.0742 1.957 2.1719 5.207 0.22656 7.2734-0.37109 0.39453-37.547 40.465-51.098 98.062-14.328 60.949 6.0977 163.27 15.551 204.45l0.085938 0.42187c2.3398 16.262 5.7109 34.645 8.9766 52.43 5.7461 31.285 11.16 60.84 11.16 78.863 0 80.41-43.68 153.79-108.7 182.61-1.1641 0.51562-2.832 1.1758-4.7891 1.9219-12.539 4.8477-19.234 8.4844-19.895 10.824-0.35938 2.5781-2.5664 4.4023-5.0898 4.4023-0.23828 0-0.49219-0.011719-0.73047-0.046876-2.8203-0.40234-4.7734-3.0312-4.3789-5.8398zm-1.1523 60.086h315.6c2.832 0 5.1484 2.3047 5.1484 5.1602 0 2.832-2.3047 5.1484-5.1484 5.1484h-315.6c-2.8438 0-5.1484-2.3047-5.1484-5.1484s2.3047-5.1602 5.1484-5.1602zm0 85.762h315.6c2.832 0 5.1484 2.3164 5.1484 5.1602s-2.3047 5.1602-5.1484 5.1602h-315.6c-2.8438 0-5.1484-2.3164-5.1484-5.1602s2.3047-5.1602 5.1484-5.1602zm0.085937 224.58c4.7539-80.809 6.2383-136.78 5.7109-175.08h7.8008l5.0625 118.38 5.0625-118.38h20.172l4.4141 92.832 4.4141-92.832 37.555-0.003906 4.4141 92.832 4.4141-92.832h22.055l8.3984 161.41 8.3867-161.41h20.09l6.8047 143.06 6.8047-143.06h48.504l4.7773 100.38 4.7656-100.38h31.98l4.7773 100.38 4.7656-100.38h16.668l4.7773 100.38 4.7656-100.38h12.059l13.199 278.52c-4.332 7.5117-12.191 15.18-26.207 14.449-26.953-1.3789-21.742-19.078-40.043-19.078s-11.449 25.188-37.754 29.762c-26.316 4.5703-22.883-29.762-43.488-46.922-20.594-17.172-30.898 17.16-49.199 35.93s-24.023 21.277-51.492 14.41c-27.469-6.8633-35.473-17.16-64.078-13.738-11.605 1.3906-17.578 8.3281-20.578 16.078 3.4844-34.164 6.9297-78.062 10.242-134.33z" fill="#fff"/>
</svg>
